<svg width="19" height="327" viewBox="0 0 19 327" fill="none" xmlns="http://www.w3.org/2000/svg">
<path d="M2.72931 200.967H5.8392L5.8392 210.967H2.72931L2.72931 200.967ZM4.27876 196C5.27876 196 6.08096 196.802 6.08096 197.802C6.08096 198.802 5.27876 199.604 4.27876 199.604C3.27876 199.604 2.47656 198.791 2.47656 197.802C2.47656 196.813 3.27876 196 4.27876 196Z" fill="#7E7E7E"/>
<path d="M7.78455 200.967H10.7626V202.33H10.8065C11.2241 201.539 12.2351 200.714 13.7516 200.714C16.8944 200.714 17.4769 202.78 17.4769 205.473V210.956H14.367L14.367 206.099C14.367 204.934 14.345 203.451 12.7516 203.451C11.1582 203.451 10.8834 204.714 10.8834 206.022L10.8834 210.967H7.77356L7.77356 200.967H7.78455Z" fill="#7E7E7E"/>
<path d="M17.5242 227.695C16.9942 227.943 16.4142 228.087 15.8542 228.19C16.1242 228.138 16.5142 227.644 16.6742 227.438C16.9142 227.129 17.1142 226.779 17.2342 226.398C17.2442 226.367 17.2642 226.326 17.2342 226.305C17.1942 226.295 17.1742 226.305 17.1442 226.305C16.5142 226.655 15.8542 226.902 15.1642 227.088C15.1042 227.098 15.0642 227.088 15.0242 227.047C14.9642 226.974 14.9142 226.913 14.8542 226.861C14.5642 226.604 14.2442 226.408 13.8942 226.253C13.4242 226.058 12.9242 225.975 12.4242 226.006C11.9342 226.037 11.4542 226.181 11.0242 226.408C10.5942 226.645 10.2042 226.964 9.89419 227.355C9.57419 227.757 9.34419 228.241 9.22419 228.746C9.10419 229.23 9.11419 229.714 9.18419 230.208C9.19419 230.291 9.18419 230.301 9.11419 230.291C6.39419 229.868 4.13419 228.869 2.29419 226.717C2.21419 226.624 2.17419 226.624 2.10419 226.717C1.30419 227.953 1.69418 229.941 2.69418 230.919C2.82418 231.053 2.96418 231.176 3.11418 231.3C3.06418 231.31 2.39419 231.238 1.79419 230.919C1.71419 230.867 1.67419 230.898 1.66419 230.991C1.66419 231.125 1.66419 231.248 1.68419 231.393C1.83419 232.649 2.68419 233.813 3.83419 234.266C3.97419 234.328 4.12418 234.379 4.27418 234.4C4.01418 234.462 3.74419 234.503 2.98419 234.441C2.89419 234.421 2.85419 234.472 2.89419 234.565C3.46419 236.161 4.68419 236.635 5.60419 236.903C5.72419 236.923 5.85419 236.923 5.97419 236.954C5.97419 236.964 5.96419 236.964 5.95419 236.975C5.65418 237.448 4.59419 237.809 4.10419 237.984C3.21419 238.303 2.23419 238.447 1.29419 238.355C1.14419 238.334 1.11419 238.334 1.07419 238.355C1.03419 238.386 1.07418 238.417 1.11418 238.458C1.30418 238.592 1.50419 238.705 1.70419 238.818C2.30419 239.148 2.93419 239.405 3.58419 239.591C6.96419 240.548 10.7642 239.848 13.3042 237.253C15.2942 235.214 15.9942 232.402 15.9942 229.59C15.9942 229.477 16.1242 229.415 16.1942 229.364C16.7142 228.962 17.1342 228.478 17.5142 227.943C17.6042 227.819 17.6042 227.716 17.6042 227.675C17.6042 227.613 17.6042 227.634 17.5342 227.664L17.5242 227.695Z" fill="#7E7E7E"/>
<path d="M10.0737 289.136C8.77317 289.136 7.7041 290.194 7.7041 291.506C7.7041 292.817 8.76215 293.875 10.0737 293.875C11.3852 293.875 12.4433 292.817 12.4433 291.506C12.4433 290.194 11.3852 289.136 10.0737 289.136Z" fill="#7E7E7E"/>
<path d="M14.2727 284H5.7312C3.94574 284 2.50195 285.444 2.50195 287.229L2.50195 295.771C2.50195 297.556 3.94574 299 5.7312 299H14.2727C16.0582 299 17.502 297.556 17.502 295.771V287.229C17.502 285.444 16.0582 284 14.2727 284ZM10.0626 295.198C8.02363 295.198 6.37043 293.544 6.37043 291.506C6.37043 289.467 8.02363 287.813 10.0626 287.813C12.1015 287.813 13.7547 289.467 13.7547 291.506C13.7547 293.544 12.1015 295.198 10.0626 295.198ZM13.9751 288.442C13.4902 288.442 13.0934 288.045 13.0934 287.56C13.0934 287.075 13.4902 286.678 13.9751 286.678C14.4601 286.678 14.8568 287.075 14.8568 287.56C14.8568 288.045 14.4601 288.442 13.9751 288.442Z" fill="#7E7E7E"/>
<path d="M12.5123 264.977L12.8923 262.407H10.4923V260.742C10.4923 260.043 10.8223 259.354 11.9023 259.354H12.9923V257.175C12.9923 257.175 12.0123 257 11.0623 257C9.0923 257 7.8023 258.233 7.8023 260.454L7.8023 262.407H5.6123V264.977H7.8023V271H10.5023L10.5023 264.977H12.5123Z" fill="#7E7E7E"/>
<path d="M13.7708 312H5.22924C3.44379 312 2 313.444 2 315.229V323.771C2 325.556 3.44379 327 5.22924 327H13.7708C15.5562 327 17 325.556 17 323.771V315.229C17 313.444 15.5562 312 13.7708 312ZM12.9111 319.924L10.277 321.445L7.64291 322.966C7.32329 323.154 6.92652 322.922 6.92652 322.547V316.464C6.92652 316.089 7.32329 315.868 7.64291 316.045L10.277 317.566L12.9111 319.087C13.2307 319.274 13.2307 319.737 12.9111 319.913V319.924Z" fill="#7E7E7E"/>
<line x1="10" y1="100" x2="10" y2="175" stroke="#7E7E7E" stroke-width="2"/>
<path d="M3.38 1.72C3.18 1.72 3 1.88 3 2.1L3 4.46C3 4.66 3.18 4.84 3.38 4.84L8.24 4.84L8.24 9.4C8.24 9.6 8.42 9.78 8.62 9.78L10.8 9.78C11 9.78 11.18 9.6 11.18 9.4L11.18 4.84L14.06 4.84L14.06 10.38C14.06 10.6 14.24 10.76 14.44 10.76L16.62 10.76C16.82 10.76 17 10.6 17 10.38L17 2.1C17 1.88 16.82 1.72 16.62 1.72L3.38 1.72ZM9.98 11.9695C5.98 11.9695 2.8 15.1495 2.8 19.1495C2.8 23.1495 5.98 26.3495 9.98 26.3495C13.98 26.3495 17.2 23.1495 17.2 19.1495C17.2 15.1495 13.98 11.9695 9.98 11.9695ZM9.98 15.1695C12.18 15.1695 14 16.9695 14 19.1495C14 21.3495 12.18 23.1495 9.98 23.1495C7.8 23.1495 6 21.3495 6 19.1495C6 16.9695 7.8 15.1695 9.98 15.1695ZM3.38 28.7708C3.18 28.7708 3 28.9308 3 29.1508L3 36.6708C3 36.8908 3.18 37.0508 3.38 37.0508L5.56 37.0508C5.76 37.0508 5.94 36.8908 5.94 36.6708L5.94 31.9108L16.62 31.9108C16.82 31.9108 17 31.7308 17 31.5308L17 29.1508C17 28.9308 16.82 28.7708 16.62 28.7708L3.38 28.7708ZM3.38 38.9856C3.18 38.9856 3 39.1456 3 39.3656L3 46.8856C3 47.1056 3.18 47.2656 3.38 47.2656L5.56 47.2656C5.76 47.2656 5.94 47.1056 5.94 46.8856L5.94 42.1256L16.62 42.1256C16.82 42.1256 17 41.9456 17 41.7456L17 39.3656C17 39.1456 16.82 38.9856 16.62 38.9856L3.38 38.9856ZM9.98 48.1023C5.98 48.1023 2.8 51.2823 2.8 55.2823C2.8 59.2823 5.98 62.4823 9.98 62.4823C13.98 62.4823 17.2 59.2823 17.2 55.2823C17.2 51.2823 13.98 48.1023 9.98 48.1023ZM9.98 51.3023C12.18 51.3023 14 53.1023 14 55.2823C14 57.4823 12.18 59.2823 9.98 59.2823C7.8 59.2823 6 57.4823 6 55.2823C6 53.1023 7.8 51.3023 9.98 51.3023ZM3.08 67.3459C2.92 67.3859 2.8 67.5459 2.8 67.7059L2.8 68.0259C2.8 68.1659 2.9 68.3059 3.02 68.3659L11.2 72.0059L11.2 72.0659L3.02 75.7259C2.9 75.7859 2.8 75.9259 2.8 76.0659L2.8 76.3859C2.8 76.5459 2.92 76.7059 3.08 76.7459L16.52 80.5259C16.8 80.6059 17 80.4459 17 80.1659L17 77.8259C17 77.6659 16.86 77.5059 16.72 77.4659L9.94 75.7459L9.94 75.6659L16.98 72.5659C17.1 72.5259 17.2 72.4059 17.2 72.2259L17.2 71.8659C17.2 71.7059 17.1 71.5859 16.98 71.5259L9.94 68.4259L9.94 68.3459L16.72 66.6259C16.86 66.5859 17 66.4259 17 66.2659L17 63.9259C17 63.6459 16.8 63.4859 16.52 63.5659L3.08 67.3459Z" fill="#7E7E7E"/>
</svg>
